<?xml version="1.0" encoding="UTF-8" standalone="no"?>
<!DOCTYPE svg PUBLIC "-//W3C//DTD SVG 1.1//EN" "http://www.w3.org/Graphics/SVG/1.1/DTD/svg11.dtd">
<svg width="100%" height="100%" viewBox="0 0 1500 750" version="1.1" xmlns="http://www.w3.org/2000/svg" xmlns:xlink="http://www.w3.org/1999/xlink" xml:space="preserve" xmlns:serif="http://www.serif.com/" style="fill-rule:evenodd;clip-rule:evenodd;stroke-linejoin:round;stroke-miterlimit:2;">
    <g transform="matrix(1,0,0,1,-2145.77,-2578.15)">
        <g transform="matrix(1,0,0,1,2095.77,2503.15)">
            <g transform="matrix(1.54188,0,0,1.41943,-293.706,-150.702)">
                <rect x="222.914" y="159.009" width="972.841" height="528.381" style="fill-opacity:0.4;"/>
            </g>
            <g transform="matrix(0.743112,0,0,0.743112,-215.017,10.2262)">
                <text x="617.493px" y="363.629px" style="font-family:'XavierSans-Regular2', 'XavierSans';font-size:222.24px;fill:rgb(255,0,0);">No<tspan x="972.854px 1194.2px " y="363.629px 363.629px ">m </tspan>du jeu</text>
            </g>
            <g transform="matrix(1,0,0,1,-1931.5,-1121.68)">
                <text x="2225.22px" y="1497.05px" style="font-family:'FelixTitlingMT', 'Felix Titling', fantasy;font-size:55px;fill:white;">Une horde de t<tspan x="2700.99px 2745.71px " y="1497.05px 1497.05px ">ou</tspan>ristes p<tspan x="3001.21px 3039.05px " y="1497.05px 1497.05px ">ar</tspan>isiens</text>
                <text x="2152.31px" y="1552.05px" style="font-family:'FelixTitlingMT', 'Felix Titling', fantasy;font-size:55px;fill:white;">anglais chinois et normands déferle</text>
                <text x="2223.45px" y="1607.05px" style="font-family:'FelixTitlingMT', 'Felix Titling', fantasy;font-size:55px;fill:white;">sur cha<tspan x="2466.74px 2499.95px 2529.76px 2564.81px 2606.06px " y="1607.05px 1607.05px 1607.05px 1607.05px 1607.05px ">teau,</tspan> il f<tspan x="2715.77px 2750.81px 2792.06px " y="1607.05px 1607.05px 1607.05px ">aut</tspan> le défendre !</text>
            </g>
            <g transform="matrix(1,0,0,1,-1891.09,-1071.25)">
                <rect x="2492.85" y="1655.02" width="445.095" height="137.62" style="fill:rgb(255,0,0);"/>
            </g>
            <g transform="matrix(0.743112,0,0,0.743112,244.769,407.383)">
                <text x="617.493px" y="363.629px" style="font-family:'XavierSans-Regular2', 'XavierSans';font-size:96.89px;fill:white;">JOUER</text>
            </g>
        </g>
    </g>
</svg>
