<?xml version="1.0" encoding="UTF-8" standalone="no"?>
<!DOCTYPE svg PUBLIC "-//W3C//DTD SVG 1.1//EN" "http://www.w3.org/Graphics/SVG/1.1/DTD/svg11.dtd">
<svg width="100%" height="100%" viewBox="0 0 1500 750" version="1.1" xmlns="http://www.w3.org/2000/svg" xmlns:xlink="http://www.w3.org/1999/xlink" xml:space="preserve" xmlns:serif="http://www.serif.com/" style="fill-rule:evenodd;clip-rule:evenodd;stroke-linejoin:round;stroke-miterlimit:2;">
    <g transform="matrix(1,0,0,1,-1957.2,-1196.68)">
        <g transform="matrix(1,0,0,1,1907.2,1121.68)">
            <g transform="matrix(1.54188,0,0,1.41943,-293.706,-150.702)">
                <rect x="222.914" y="159.009" width="972.841" height="528.381" style="fill-opacity:0.4;"/>
            </g>
            <g transform="matrix(0.743112,0,0,0.743112,-215.017,10.2262)">
                <text x="617.493px" y="363.629px" style="font-family:'XavierSans-Regular2', 'XavierSans';font-size:222.24px;fill:rgb(255,0,0);">No<tspan x="972.854px 1194.2px " y="363.629px 363.629px ">m </tspan>du jeu</text>
            </g>
            <g transform="matrix(1,0,0,1,-1931.5,-1121.68)">
                <text x="2156.64px" y="1503.52px" style="font-family:'FelixTitlingMT', 'Felix Titling', fantasy;font-size:64px;fill:white;">Une horde de t<tspan x="2710.27px 2762.3px " y="1503.52px 1503.52px ">ou</tspan>ristes déferle</text>
                <text x="2140.32px" y="1567.52px" style="font-family:'FelixTitlingMT', 'Felix Titling', fantasy;font-size:64px;fill:white;">sur cha<tspan x="2423.41px 2462.07px 2496.75px 2537.53px 2585.53px " y="1567.52px 1567.52px 1567.52px 1567.52px 1567.52px ">teau,</tspan> il f<tspan x="2713.19px 2753.97px 2801.97px " y="1567.52px 1567.52px 1567.52px ">aut</tspan> le défendre !</text>
            </g>
            <g transform="matrix(1,0,0,1,-1891.09,-1071.25)">
                <rect x="2492.85" y="1655.02" width="445.095" height="137.62" style="fill:rgb(255,0,0);"/>
            </g>
            <g transform="matrix(0.743112,0,0,0.743112,244.769,407.383)">
                <text x="617.493px" y="363.629px" style="font-family:'XavierSans-Regular2', 'XavierSans';font-size:96.89px;fill:white;">JOUER</text>
            </g>
        </g>
    </g>
</svg>
