<?xml version="1.0" encoding="UTF-8" standalone="no"?>
<!DOCTYPE svg PUBLIC "-//W3C//DTD SVG 1.1//EN" "http://www.w3.org/Graphics/SVG/1.1/DTD/svg11.dtd">
<svg width="100%" height="100%" viewBox="0 0 328 522" version="1.1" xmlns="http://www.w3.org/2000/svg" xmlns:xlink="http://www.w3.org/1999/xlink" xml:space="preserve" xmlns:serif="http://www.serif.com/" style="fill-rule:evenodd;clip-rule:evenodd;stroke-linecap:round;stroke-linejoin:round;stroke-miterlimit:1.5;">
    <g transform="matrix(1,0,0,1,-2121.11,-807.261)">
        <g transform="matrix(1.69247,0,0,2.45651,0,0)">
            <g transform="matrix(1,0,0,1,219.231,-0.96821)">
                <g transform="matrix(0.537354,0.169268,-0.245681,0.370222,720.359,160.249)">
                    <g transform="matrix(1.98123,-1.91794,1.95464,2.24623,-5252.71,-2306.56)">
                        <path d="M1014.5,2102.77C1012.5,2103.68 999.65,2125.47 997.729,2130.72C996.834,2133.16 1008.93,2140.23 1009.6,2142.34C1010.27,2144.45 1022.75,2128.24 1029.74,2121.25C1034.99,2116.01 1034.5,2107.48 1035.81,2108.62C1037.54,2110.13 1025.41,2095.96 1021.19,2097.11C1016.97,2098.26 1016.94,2101.65 1014.5,2102.77Z" style="fill:rgb(17,24,85);stroke:black;stroke-width:0.36px;"/>
                    </g>
                    <g transform="matrix(-0.0169119,-2.8913,2.81716,0.256797,-5072.76,2940.33)">
                        <path d="M1009.43,2121.71C1007.99,2120.56 998.461,2116.68 996.542,2120.23C994.624,2123.78 1003.64,2146.22 1003.88,2148.81C1004.12,2151.4 1012.04,2151.21 1011.68,2146.61C1011.51,2144.53 1012.32,2138.95 1010.56,2134.06C1008.26,2127.64 1009.43,2121.71 1009.43,2121.71Z" style="fill:rgb(132,100,55);stroke:black;stroke-width:0.37px;"/>
                    </g>
                </g>
                <g transform="matrix(1.52125,0.350685,-0.587523,1.2098,775.534,-2449.74)">
                    <g transform="matrix(0.85233,-0.497587,0.483141,0.793609,-865.076,963.424)">
                        <path d="M1015.64,2091.95C1015.38,2092.47 1010.48,2102.88 1015.6,2110.77C1018.78,2115.68 1029.04,2126.29 1028.44,2130.36C1027.17,2138.95 1031.86,2151.63 1031.73,2152.36C1031.44,2153.99 1038.79,2157.19 1044.45,2157.24C1050.11,2157.29 1052.71,2135.65 1052.59,2132.66C1052.42,2128.5 1049.2,2106.46 1041.42,2107C1034.99,2107.45 1016.21,2090.81 1015.64,2091.95Z" style="fill:rgb(0,9,88);stroke:black;stroke-width:0.38px;"/>
                    </g>
                    <g transform="matrix(0.825598,-0.530339,0.812323,1.20002,-1546.19,116.709)">
                        <path d="M1028.77,2154.57C1027.38,2152.62 1024.26,2156.68 1024.36,2159.46C1024.45,2162.24 1051.7,2166.18 1057.45,2164.26C1063.21,2162.34 1057.64,2159.56 1054.96,2158.31C1052.27,2157.06 1044.03,2155.62 1041.82,2155.62C1039.62,2155.62 1030.21,2156.58 1028.77,2154.57Z" style="fill:rgb(132,100,55);stroke:black;stroke-width:0.29px;"/>
                    </g>
                </g>
                <g transform="matrix(1.2359,0,0,1.36355,-181.259,-2400.07)">
                    <path d="M1034.34,2102.13C1035.87,2105.35 1037.6,2110.34 1042.11,2111.2C1046.61,2112.07 1053.81,2112.64 1055.73,2111.2C1057.64,2109.76 1059.3,2102.29 1057.48,2098.64C1055.65,2095 1054.67,2092.12 1051.03,2091.92C1047.38,2091.73 1040.38,2087.22 1037.21,2090.68C1034.05,2094.13 1032.8,2098.9 1034.34,2102.13Z" style="fill:rgb(188,193,214);stroke:black;stroke-width:0.36px;"/>
                </g>
                <g transform="matrix(1.40579,-0.532359,0.769958,0.965135,-1926.8,-1016.43)">
                    <path d="M1053.35,2069.23C1056.34,2070.72 1042.35,2103.43 1037.1,2101.32C1035.18,2100.55 1035.33,2087.42 1035.33,2087.42C1039.2,2077.35 1045.94,2072.1 1053.35,2069.23Z" style="fill:rgb(176,85,10);stroke:black;stroke-width:0.37px;"/>
                </g>
                <g transform="matrix(0.952463,-0.446571,0.899315,0.910486,-1734.15,-990.018)">
                    <path d="M1054.06,2072.97C1054.06,2072.97 1073.69,2079.51 1077.47,2080.93C1093.74,2087.01 1101.46,2086.89 1104.09,2092.49C1105.79,2096.1 1079.13,2108.18 1080.13,2105.93C1080.92,2104.14 1072.94,2101.89 1071.92,2104.24C1070.73,2106.99 1054.76,2095.68 1051.01,2095.22C1047.26,2094.75 1032.98,2090.06 1032.98,2090.06C1032.98,2090.06 1040.24,2066.88 1054.06,2072.97Z" style="fill:rgb(182,146,108);stroke:black;stroke-width:0.42px;"/>
                </g>
                <g transform="matrix(1.40579,-0.532359,0.769958,0.965135,-1926.8,-1016.43)">
                    <path d="M1053.35,2069.22C1053.35,2069.22 1045.95,2067.05 1039.88,2067.04C1039.19,2067.04 1024.41,2061.44 1021.5,2062.9C1015.88,2065.71 1010.5,2084.22 1011.9,2088.9C1013.31,2093.58 1023.15,2094.65 1026.2,2095.82C1029.24,2096.99 1036.14,2101.21 1037.13,2101.24C1040.06,2101.35 1036.45,2076.03 1053.35,2069.22Z" style="fill:rgb(226,120,19);stroke:black;stroke-width:0.37px;"/>
                </g>
                <g transform="matrix(0.60207,0.212174,0.219966,-0.296287,-226.614,337.395)">
                    <path d="M1953.25,1085.05C1953.25,1085.05 1821.52,1057.23 1822.84,1035.21C1824,1015.59 1831.17,1036.17 1835.28,1037C1840.06,1037.97 1845.48,1043.07 1854.42,1046.08C1887.53,1057.24 1942.83,1075.58 1954.08,1076.86C1968.37,1078.5 1953.25,1085.05 1953.25,1085.05Z" style="fill:rgb(74,56,36);stroke:black;stroke-width:1.01px;"/>
                </g>
                <g transform="matrix(0.985998,-0.114893,0.268534,1.09392,-84.0028,93.9601)">
                    <g transform="matrix(0.590854,0,0,0.407082,0,0)">
                        <path d="M1975.53,1046.45L1977.39,1108.9L2023.26,1087.75L2026.14,1030.76L1975.53,1046.45Z" style="fill:rgb(66,66,66);stroke:black;stroke-width:0.95px;"/>
                    </g>
                    <g transform="matrix(0.3565,-0.754801,1.13847,0.255243,-1584.98,717.411)">
                        <path d="M1080.13,2105.93C1080.92,2104.14 1093.46,2088.64 1096.99,2092.4C1099.08,2094.63 1100.39,2096.81 1101.37,2098.89C1103.07,2102.51 1087.07,2116.31 1084.03,2114.67C1080.98,2113.03 1079.13,2108.18 1080.13,2105.93Z" style="fill:rgb(182,146,108);stroke:black;stroke-width:0.49px;"/>
                    </g>
                    <g transform="matrix(0.524502,0.00984685,-0.0160941,0.406931,143.17,-20.3732)">
                        <path d="M2009.29,1047.24L2051.93,1044.05L2054.86,1086.63L2013.51,1090.34C2001.89,1079.72 2001.84,1057.86 2009.29,1047.24Z" style="stroke:black;stroke-width:0.99px;"/>
                    </g>
                    <g transform="matrix(0.590854,0,0,0.407082,11.4682,-2.70306)">
                        <path d="M1927.81,1108.84L1958.38,1115.08L1957.05,1053.27L1926.27,1048.97L1927.81,1108.84Z" style="stroke:black;stroke-width:0.95px;"/>
                    </g>
                    <g transform="matrix(0.590854,0,0,0.407082,0,0)">
                        <path d="M1945.86,1042.41L1992.54,1030.76L2026.7,1030.76L1975.6,1046.62L1945.86,1042.41Z" style="fill:rgb(39,39,39);stroke:black;stroke-width:0.95px;"/>
                    </g>
                    <g transform="matrix(0.534644,0,0,0.412918,110.835,-6.43587)">
                        <path d="M1981.26,1028.19L1971.78,1030.76L1971.94,1040.71L1981.91,1042.72L1981.26,1028.19Z" style="stroke:black;stroke-width:0.98px;"/>
                    </g>
                    <g transform="matrix(0.590854,0,0,0.407082,-0.749898,-0.518703)">
                        <path d="M1982.07,1043.31L1981.61,1028.44L1998.97,1024.73L1999.17,1038.62L1982.07,1043.31Z" style="fill:rgb(66,66,66);stroke:black;stroke-width:0.95px;"/>
                    </g>
                    <g transform="matrix(0.790666,-0.069906,0.0909995,0.488564,-531.191,66.3874)">
                        <path d="M2073.28,1028.73C2073.28,1028.73 2075.26,1029.12 2078.95,1029.68C2082.65,1030.24 2075.93,1068.22 2075.93,1068.22L2069.19,1066.77C2064.04,1053.08 2066.02,1036.84 2073.28,1028.73Z" style="fill:rgb(66,66,66);stroke:black;stroke-width:0.75px;"/>
                    </g>
                    <g transform="matrix(0.790666,-0.069906,0.095957,0.51518,-540.14,39.2085)">
                        <path d="M2082.1,1030.76C2082.81,1030.78 2073.28,1044.65 2079.04,1063.2C2084.94,1082.22 2090.89,1021.21 2082.1,1030.76Z" style="fill:rgb(156,156,156);stroke:black;stroke-width:0.73px;"/>
                    </g>
                </g>
                <g transform="matrix(1.60415,0,0,1.10131,-550.99,-1846.21)">
                    <path d="M1043.46,2047.68C1044.27,2049.98 1042.45,2056.69 1043.46,2059.86C1044.46,2063.03 1045.81,2068.11 1045.9,2068.4C1046,2068.68 1025.66,2066.77 1025.66,2066.77L1014.63,2065.71L1017.45,2052.57L1026.14,2043.75C1026.14,2043.75 1042.65,2045.38 1043.46,2047.68Z" style="fill:rgb(167,136,103);stroke:black;stroke-width:0.37px;"/>
                </g>
                <g transform="matrix(0.668969,-0.0682291,0.0865236,0.402694,-229.626,128.601)">
                    <path d="M1950.68,1095.34C1948.37,1103.54 1818.62,1067.53 1822.84,1035.21C1825.38,1015.72 1831.78,1034.69 1835.28,1037C1854.4,1049.6 1935.11,1090.58 1951.51,1087.16C1965.59,1084.23 1950.68,1095.34 1950.68,1095.34Z" style="fill:rgb(74,56,36);stroke:black;stroke-width:0.93px;"/>
                </g>
                <g transform="matrix(2.29052,0.280346,-0.664189,2.57594,173.262,-5249.58)">
                    <path d="M1020.77,2090.47C1018.75,2090.47 1011.2,2096.97 1013.74,2096.33C1019.69,2094.83 1022.78,2090.47 1020.77,2090.47Z" style="fill:rgb(188,193,214);stroke:black;stroke-width:0.19px;"/>
                </g>
                <g transform="matrix(1.40579,-0.532359,0.769958,0.965135,-1945.79,-1012.5)">
                    <path d="M1053.35,2069.23C1056.34,2070.72 1042.35,2103.43 1037.1,2101.32C1035.18,2100.55 1035.33,2087.42 1035.33,2087.42C1039.2,2077.35 1045.94,2072.1 1053.35,2069.23Z" style="fill:rgb(176,85,10);stroke:black;stroke-width:0.37px;"/>
                </g>
                <g transform="matrix(1.60415,0,0,2.61627,-544.277,-5051.32)">
                    <path d="M1006.71,2093.65C1003.39,2097.38 1002.97,2107.66 1005.56,2110.05C1008.15,2112.45 1019.18,2114.56 1024.93,2114.75C1030.69,2114.95 1031.17,2105.26 1030.98,2104.01C1030.79,2102.76 1024.78,2092.96 1018.93,2091.96C1017.07,2091.64 1008.25,2091.92 1006.71,2093.65Z" style="fill:rgb(226,120,19);stroke:black;stroke-width:0.2px;"/>
                </g>
                <g transform="matrix(1.02263,0.365569,0.736191,-0.977562,-1480.01,2097.3)">
                    <path d="M1054.06,2072.97C1054.06,2072.97 1073.69,2079.51 1077.47,2080.93C1093.74,2087.01 1098.74,2093.29 1101.37,2098.89C1103.07,2102.51 1087.07,2116.31 1084.03,2114.67C1080.98,2113.03 1079.13,2108.18 1080.13,2105.93C1080.92,2104.14 1072.94,2101.89 1071.92,2104.24C1070.73,2106.99 1054.76,2095.68 1051.01,2095.22C1047.26,2094.75 1032.98,2090.06 1032.98,2090.06C1032.98,2090.06 1040.24,2066.88 1054.06,2072.97Z" style="fill:rgb(182,146,108);stroke:black;stroke-width:0.42px;"/>
                </g>
                <g transform="matrix(1.40579,-0.532359,0.769958,0.965135,-1945.79,-1012.5)">
                    <path d="M1053.35,2069.22C1053.35,2069.22 1027.12,2060.09 1021.5,2062.9C1015.88,2065.71 1010.5,2084.22 1011.9,2088.9C1013.31,2093.58 1021.97,2099.2 1025.02,2100.37C1028.06,2101.54 1034.38,2102.94 1036.96,2101.54C1039.54,2100.13 1036.45,2076.03 1053.35,2069.22Z" style="fill:rgb(226,120,19);stroke:black;stroke-width:0.37px;"/>
                </g>
                <g>
                    <g transform="matrix(1.60415,0,0,1.22834,-582.711,-2106.77)">
                        <path d="M1078.79,1993.31C1079.87,1998.42 1083.23,2004.28 1084.12,2007.56C1085.02,2010.83 1083.61,2014.35 1087.59,2017.39C1091.57,2020.44 1099.82,2026.14 1094.46,2028.04C1091.59,2029.05 1088.3,2028.75 1088.3,2028.75C1088.3,2028.75 1087.36,2030.97 1090.17,2033.32C1091.69,2034.58 1095.68,2037.3 1094.1,2039.52C1091.99,2042.48 1092.13,2044.86 1094.62,2045.96C1098.62,2047.74 1091.81,2054.63 1087.12,2054.63C1082.44,2054.63 1075.41,2056.5 1062.77,2055.56C1050.12,2054.63 1046.87,2059.31 1036.55,2054.63C1026.24,2049.94 1026.09,2052.32 1022.37,2044.13C1018.65,2035.93 1012.89,2026.76 1013.83,2017.63C1014.76,2008.49 1014.28,1999.83 1024.36,1996.55C1034.43,1993.27 1033.12,1995.14 1050.17,1990.69C1067.22,1986.25 1077.71,1988.2 1078.79,1993.31Z" style="fill:rgb(182,146,108);stroke:black;stroke-width:0.35px;"/>
                    </g>
                    <g transform="matrix(0.967722,0,0,0.228294,405.848,0.318651)">
                        <path d="M717.257,1575.12C719.209,1588.29 719.453,1609.03 707.5,1611.71C695.547,1614.39 699.206,1630.12 690.424,1623.72C681.642,1617.32 657.943,1640.22 657.467,1632.24C656.827,1621.52 656.075,1615 654.565,1593.66C652.17,1559.81 648.469,1547.23 649.689,1539.91C650.909,1532.59 654.809,1513.16 656.516,1504.38C657.289,1500.4 658.712,1496.39 660.626,1493.04C662.941,1488.98 666.449,1478 667.22,1475.43C668.55,1470.98 674.503,1469.44 675.508,1467.25C677.267,1463.42 679.64,1459.69 685.926,1459.95C695.321,1460.33 691.254,1454.83 698.248,1452.03C700.152,1451.27 714.216,1447.34 716.713,1446.24C722.321,1443.75 722.628,1447.7 726.223,1447L730.22,1443.59C735.136,1442.63 739.265,1443.44 745.595,1446.24C749.218,1447.85 751.61,1445.18 754.571,1445.96C756.956,1446.58 757.519,1448.96 759.642,1449.88C761.594,1450.73 771.633,1454.33 773.5,1456.05C779.599,1461.66 781.794,1462.28 782.77,1467.94C783.745,1473.61 788.243,1492.5 781.413,1492.74C774.583,1492.99 767.02,1491.28 763.361,1495.43C759.702,1499.58 766.064,1501.96 759.966,1501.96C756.556,1501.96 754.225,1505.55 750.842,1506.13C748.174,1506.59 745.143,1507.03 741.163,1507.14C732.137,1507.38 735.174,1502.48 727.04,1503.94C718.906,1505.4 720.916,1509.33 721.648,1515.19C722.38,1521.04 724.1,1527.14 723.972,1530.07C723.843,1532.99 729.698,1539.33 727.015,1543.84C724.331,1548.36 715.306,1561.95 717.257,1575.12Z" style="stroke:black;stroke-width:0.82px;"/>
                    </g>
                    <g transform="matrix(0.590854,0,0,0.189295,582.393,330.46)">
                        <g transform="matrix(2.71496,0,0,2.70539,-1952,-5245.95)">
                            <path d="M1071.3,1998.35C1066.2,1999.1 1064.63,1998.93 1063.58,2003.12C1062.54,2007.32 1062.38,2007.47 1062.54,2012.42C1062.68,2017.36 1065.38,2018.41 1071.68,2018.86C1077.97,2019.31 1083.94,2017.31 1082.28,2010.54C1080.84,2004.66 1080.07,2003.73 1078.27,2001.63C1076.47,1999.53 1076.39,1997.61 1071.3,1998.35Z" style="fill:rgb(212,216,214);stroke:black;stroke-width:0.47px;"/>
                        </g>
                        <g transform="matrix(1.07475,0,0,1.31476,-178.342,-2448.19)">
                            <path d="M1071.3,1998.35C1066.2,1999.1 1064.63,1998.93 1063.58,2003.12C1062.54,2007.32 1062.38,2007.47 1062.54,2012.42C1062.68,2017.36 1065.38,2018.41 1071.68,2018.86C1077.97,2019.31 1083.94,2017.31 1082.28,2010.54C1080.84,2004.66 1080.07,2003.73 1078.27,2001.63C1076.47,1999.53 1076.39,1997.61 1071.3,1998.35Z" style="stroke:black;stroke-width:1.14px;"/>
                        </g>
                    </g>
                    <g transform="matrix(0.943656,0.126746,-0.0384206,0.134827,228.419,-2.79881)">
                        <path d="M1071.3,1998.35C1066.2,1999.1 1064.63,1998.93 1063.58,2003.12C1062.54,2007.32 1062.38,2007.47 1062.54,2012.42C1062.68,2017.36 1065.38,2018.41 1071.68,2018.86C1077.97,2019.31 1084.07,2018.32 1082.03,2014.13C1080.34,2010.65 1080.3,2003.44 1078.5,2001.35C1076.7,1999.25 1076.39,1997.61 1071.3,1998.35Z" style="stroke:black;stroke-width:0.85px;"/>
                    </g>
                    <g transform="matrix(1.5313,-0.32811,0.477917,1.0513,-1437.14,-1395.04)">
                        <path d="M1067.09,1996.56C1066.51,1996.85 1065.84,1996.85 1063.44,1996.85C1061.04,1996.85 1056.34,1995.32 1054.04,1997.04C1051.74,1998.77 1050.14,2000.86 1050.07,1998.42C1050.01,1995.99 1051.84,1994.16 1055.96,1993.88C1060.08,1993.59 1069.28,1993.11 1070.15,1994.74C1071.02,1996.37 1067.66,1996.28 1067.09,1996.56Z" style="stroke:black;stroke-width:0.37px;"/>
                    </g>
                </g>
            </g>
        </g>
    </g>
</svg>
