<?xml version="1.0" encoding="UTF-8" standalone="no"?>
<!DOCTYPE svg PUBLIC "-//W3C//DTD SVG 1.1//EN" "http://www.w3.org/Graphics/SVG/1.1/DTD/svg11.dtd">
<svg width="100%" height="100%" viewBox="0 0 688 424" version="1.1" xmlns="http://www.w3.org/2000/svg" xmlns:xlink="http://www.w3.org/1999/xlink" xml:space="preserve" xmlns:serif="http://www.serif.com/" style="fill-rule:evenodd;clip-rule:evenodd;stroke-linecap:round;stroke-linejoin:round;stroke-miterlimit:1.5;">
    <g transform="matrix(1,0,0,1,-122.913,-1560.58)">
        <g transform="matrix(1.69247,0,0,2.45651,0,0)">
            <g transform="matrix(-1.06616,-8.99569e-17,1.89509e-16,-1.06616,1191.97,1302.12)">
                <g transform="matrix(1,0,0,1,-0.226328,0)">
                    <g>
                        <g transform="matrix(0.590854,0,0,0.407082,-8.59437,0)">
                            <path d="M1311.67,1483.86C1322.99,1501.88 1334.98,1519.29 1349.43,1534.44L1380.47,1534.44C1380.47,1534.44 1367.01,1472.27 1372.99,1467.41C1378.97,1462.55 1311.67,1483.86 1311.67,1483.86Z" style="fill:white;stroke:black;stroke-width:0.94px;"/>
                        </g>
                        <g transform="matrix(0.590854,0,0,0.407082,-8.59437,0)">
                            <path d="M1377.27,1518.49C1377.2,1518.13 1342.21,1526.66 1343.57,1528.02C1345.62,1530.07 1347.43,1532.34 1349.43,1534.44L1380.47,1534.44C1380.47,1534.44 1379.01,1527.7 1377.27,1518.49Z" style="fill:rgb(165,107,58);stroke:black;stroke-width:0.94px;"/>
                        </g>
                    </g>
                    <g>
                        <g transform="matrix(0.590854,0,0,0.814165,105.795,-624.643)">
                            <path d="M1311.67,1483.86C1316.74,1503.9 1327.66,1521.66 1349.43,1534.44L1388.24,1533.09C1370.37,1515.47 1369.92,1474.98 1378.07,1466.81C1381.87,1463.02 1311.67,1483.86 1311.67,1483.86Z" style="fill:white;stroke:black;stroke-width:0.59px;"/>
                        </g>
                        <g transform="matrix(0.696731,-0.0339688,0.0602713,0.404959,-128.771,48.8625)">
                            <path d="M1377.27,1518.49C1377.2,1518.13 1342.28,1525.15 1343.64,1526.51C1345.69,1528.56 1346.44,1532.52 1348.44,1534.61L1380.47,1534.44C1380.47,1534.44 1379.01,1527.7 1377.27,1518.49Z" style="fill:rgb(165,107,58);stroke:black;stroke-width:0.84px;"/>
                        </g>
                    </g>
                    <g transform="matrix(0.590854,0,0,0.407082,-8.53646,0.119699)">
                        <path d="M1288.98,1493.5C1288.98,1496.44 1289.52,1495.01 1295.96,1495.55C1300.02,1495.9 1299.37,1500.28 1301.14,1501.62C1302.91,1502.97 1306.83,1502.6 1308.42,1501.56C1310.02,1500.51 1307.76,1496.54 1310.22,1495.26C1312.81,1493.92 1321.32,1492.05 1323.98,1493.5C1326.61,1494.93 1324.34,1500.86 1326.44,1502.16C1328.53,1503.45 1334.56,1502.7 1336.54,1501.26C1338.52,1499.82 1335.77,1492.81 1338.33,1493.5C1349.14,1496.37 1371.76,1479.5 1365.01,1472.82C1358.26,1466.14 1310.09,1450.71 1297.82,1453.4C1285.56,1456.09 1288.98,1486.81 1288.98,1493.5Z" style="fill:rgb(222,140,138);stroke:black;stroke-width:0.94px;"/>
                    </g>
                    <g transform="matrix(0.590854,0,0,0.407082,-8.29982,0.598963)">
                        <path d="M1523.43,1220.43C1523.43,1220.43 1342.89,1254.2 1191.74,1230.4C1174.93,1227.76 1187.35,1237 1187.35,1237C1187.35,1237 1223.88,1245.08 1244.31,1258.35C1255.28,1265.47 1196.72,1392.32 1249.87,1529.87C1250.91,1532.57 1281.82,1534.44 1281.82,1534.44C1283.78,1507.49 1290.56,1485.36 1303.73,1469.63C1358.33,1481.77 1405.24,1480.8 1457.4,1471.03C1462.34,1493.66 1465.97,1511.07 1484.47,1532.61L1512.77,1534.44C1510.36,1457.88 1526.62,1433.9 1552.02,1429.46C1580.09,1424.56 1590.12,1384.11 1600.67,1359.17L1613.36,1228.64L1523.43,1220.43Z" style="fill:white;"/>
                        <clipPath id="_clip1">
                            <path d="M1523.43,1220.43C1523.43,1220.43 1342.89,1254.2 1191.74,1230.4C1174.93,1227.76 1187.35,1237 1187.35,1237C1187.35,1237 1223.88,1245.08 1244.31,1258.35C1255.28,1265.47 1196.72,1392.32 1249.87,1529.87C1250.91,1532.57 1281.82,1534.44 1281.82,1534.44C1283.78,1507.49 1290.56,1485.36 1303.73,1469.63C1358.33,1481.77 1405.24,1480.8 1457.4,1471.03C1462.34,1493.66 1465.97,1511.07 1484.47,1532.61L1512.77,1534.44C1510.36,1457.88 1526.62,1433.9 1552.02,1429.46C1580.09,1424.56 1590.12,1384.11 1600.67,1359.17L1613.36,1228.64L1523.43,1220.43Z"/>
                        </clipPath>
                        <g clip-path="url(#_clip1)">
                            <path d="M1222.49,1316.38C1237.45,1316.38 1294.46,1312.17 1296.33,1329.46C1298.2,1346.76 1277.17,1359.38 1273.9,1379.94C1270.63,1400.51 1265.02,1387.42 1253.34,1439.3C1241.65,1491.17 1229.91,1506.6 1208.91,1472.01C1187.9,1437.43 1207.53,1316.38 1222.49,1316.38Z" style="fill:rgb(15,9,0);stroke:black;stroke-width:0.94px;"/>
                            <path d="M1325.78,1237.39C1325.78,1237.39 1318.77,1309.76 1348.68,1323.82C1378.59,1337.88 1424.86,1347.02 1438.88,1353.67C1452.9,1360.31 1481.41,1383.68 1489.36,1333.2C1497.3,1282.73 1488.89,1275.72 1487.02,1257.02C1485.15,1238.33 1494.97,1224.77 1451.5,1229.91C1408.04,1235.06 1325.78,1237.39 1325.78,1237.39Z" style="fill:rgb(15,9,0);stroke:black;stroke-width:0.94px;"/>
                            <path d="M1302.88,1379.47C1292.6,1393.49 1284.18,1393.36 1300.07,1403.24C1315.96,1413.12 1318.77,1411.25 1338.4,1394.9C1358.03,1378.54 1365.04,1375.97 1357.09,1364.87C1349.15,1353.77 1313.16,1365.45 1302.88,1379.47Z" style="fill:rgb(15,9,0);stroke:black;stroke-width:0.94px;"/>
                            <g transform="matrix(1.29965,-0.575948,0.81245,1.83332,-1269.94,-368.921)">
                                <path d="M1302.88,1379.47C1292.6,1393.49 1284.18,1393.36 1300.07,1403.24C1315.96,1413.12 1318.77,1411.25 1338.4,1394.9C1358.03,1378.54 1365.04,1375.97 1357.09,1364.87C1349.15,1353.77 1313.16,1365.45 1302.88,1379.47Z" style="fill:rgb(15,9,0);stroke:black;stroke-width:0.54px;"/>
                            </g>
                            <path d="M1461.78,1403.24C1451.5,1407.52 1443.56,1418.73 1443.56,1418.73C1443.56,1418.73 1435.61,1436.49 1456.17,1434.62C1476.74,1432.75 1476.44,1432.29 1492.71,1415.46C1508.99,1398.63 1502.61,1393.49 1492.71,1395.36C1482.82,1397.23 1472.07,1398.97 1461.78,1403.24Z" style="fill:rgb(15,9,0);stroke:black;stroke-width:0.94px;"/>
                        </g>
                        <path d="M1523.43,1220.43C1523.43,1220.43 1342.89,1254.2 1191.74,1230.4C1174.93,1227.76 1187.35,1237 1187.35,1237C1187.35,1237 1223.88,1245.08 1244.31,1258.35C1255.28,1265.47 1196.72,1392.32 1249.87,1529.87C1250.91,1532.57 1281.82,1534.44 1281.82,1534.44C1283.78,1507.49 1290.56,1485.36 1303.73,1469.63C1358.33,1481.77 1405.24,1480.8 1457.4,1471.03C1462.34,1493.66 1465.97,1511.07 1484.47,1532.61L1512.77,1534.44C1510.36,1457.88 1526.62,1433.9 1552.02,1429.46C1580.09,1424.56 1590.12,1384.11 1600.67,1359.17L1613.36,1228.64L1523.43,1220.43Z" style="fill:none;stroke:black;stroke-width:0.94px;"/>
                    </g>
                    <g transform="matrix(0.152924,-0.393211,0.570721,0.105361,-172.788,853.138)">
                        <path d="M1209.87,1151.41C1209.87,1151.41 1215.01,1167.27 1225.76,1172.89C1236.51,1178.51 1215.95,1207.96 1195.85,1193.47C1175.75,1178.98 1206.6,1151.87 1209.87,1151.41Z" style="stroke:black;stroke-width:0.94px;"/>
                    </g>
                    <g transform="matrix(0.594554,0.0632234,-0.0845502,0.352419,58.3777,-2.77969)">
                        <path d="M1379.23,1517.78C1379.25,1517.42 1342.28,1525.15 1343.64,1526.51C1345.69,1528.56 1346.44,1532.52 1348.44,1534.61C1356.56,1536.46 1368.55,1535.42 1380.47,1534.44C1380.47,1534.44 1378.79,1527.23 1379.23,1517.78Z" style="fill:rgb(165,107,58);stroke:black;stroke-width:0.99px;"/>
                    </g>
                    <g transform="matrix(0.603591,0.0411341,-0.0368468,0.349502,109.877,32.0908)">
                        <path d="M1377.94,1518.08C1377.96,1517.72 1342.47,1524.89 1343.64,1526.51C1345.21,1528.67 1348.49,1534 1350.49,1536.1C1358.41,1534.65 1366.73,1535.8 1378.65,1534.81C1378.65,1534.81 1377.5,1527.53 1377.94,1518.08Z" style="fill:rgb(165,107,58);stroke:black;stroke-width:0.98px;"/>
                    </g>
                </g>
                <g transform="matrix(0.55419,0,1.53819e-17,0.381822,610.203,132.736)">
                    <path d="M490.703,958.372C486.912,976.784 503.404,1078.24 593.73,1082.35C602.504,1082.75 599.999,1054.35 599.999,1054.35C525.752,1043.8 508.99,981.894 502.621,954.53C502.136,952.45 491.155,956.178 490.703,958.372Z" style="fill:rgb(205,35,0);stroke:black;stroke-width:1px;"/>
                </g>
                <g transform="matrix(0.99247,0.29605,-0.623678,0.99247,348.897,-273.921)">
                    <g transform="matrix(0.55419,0,0,0.381822,608.069,135.383)">
                        <path d="M636.089,1080.5C632.395,1077.92 601.622,1110.22 605.466,1112.7C609.862,1115.52 640.124,1083.11 636.089,1080.5Z" style="fill:rgb(144,122,27);stroke:black;stroke-width:0.92px;"/>
                    </g>
                    <g transform="matrix(0.482161,0,0,0.381822,648.344,135.799)">
                        <path d="M612.26,1111.42C617.509,1100.68 637.108,1083.34 647.585,1079.22C647.585,1079.22 618.356,1055.86 601.738,1063.63C579.427,1074.05 612.26,1111.42 612.26,1111.42Z" style="fill:rgb(205,166,0);stroke:black;stroke-width:0.99px;"/>
                    </g>
                </g>
                <g transform="matrix(0.445496,0.76177,-1.73945,0.482875,1462.55,-430.696)">
                    <g transform="matrix(0.488898,-0.0763089,0.0728285,0.336547,66.9013,203.825)">
                        <path d="M1538.51,1221.46C1538.51,1221.46 1509.94,1184.47 1515.57,1169.06C1523.19,1148.17 1524.57,1153.97 1526.96,1168.19C1528.56,1177.71 1534.57,1198.14 1544.94,1207.81C1555.31,1217.47 1538.51,1221.46 1538.51,1221.46Z" style="fill:rgb(165,107,58);stroke:black;stroke-width:0.95px;"/>
                    </g>
                    <g transform="matrix(0.488898,-0.0763089,0.0728285,0.336547,46.1868,209.958)">
                        <path d="M1538.51,1221.46C1538.51,1221.46 1509.94,1184.47 1515.57,1169.06C1523.19,1148.17 1524.57,1153.97 1526.96,1168.19C1528.56,1177.71 1534.57,1198.14 1544.94,1207.81C1555.31,1217.47 1538.51,1221.46 1538.51,1221.46Z" style="fill:rgb(165,107,58);stroke:black;stroke-width:0.95px;"/>
                    </g>
                    <g transform="matrix(0.590854,0,0,0.407082,-8.59437,0)">
                        <path d="M1559.69,1207.81C1559.69,1207.81 1571.42,1169.54 1603,1174.32C1634.59,1179.11 1563.52,1201.09 1559.69,1207.81Z" style="fill:white;stroke:black;stroke-width:0.75px;"/>
                    </g>
                    <g transform="matrix(0.590854,0,0,0.407082,-8.59437,0)">
                        <path d="M1486.44,1246.5C1486.44,1246.5 1503.78,1335.04 1551.25,1350.56C1598.72,1366.08 1636.14,1233.72 1636.14,1233.72C1636.14,1233.72 1582.86,1225.77 1565.57,1209.88C1548.28,1193.99 1490.03,1245.72 1486.44,1246.5Z" style="fill:white;stroke:black;stroke-width:0.75px;"/>
                    </g>
                    <g transform="matrix(-0.590854,0,0,-0.407082,1800.39,994.296)">
                        <path d="M1559.69,1207.81C1559.69,1207.81 1571.42,1169.54 1603,1174.32C1634.59,1179.11 1563.52,1201.09 1559.69,1207.81Z" style="fill:white;stroke:black;stroke-width:0.75px;"/>
                    </g>
                    <g transform="matrix(0.574805,-0.0349103,0.0573916,0.381801,-55.9013,89.3794)">
                        <path d="M1639.65,1230.84C1648.11,1230.11 1718.97,1223.38 1704.76,1264.77C1690.56,1306.17 1708.92,1307.96 1704.76,1319.27C1700.61,1330.58 1671.17,1338.95 1663.76,1349C1656.34,1359.06 1542.1,1374.6 1539.08,1341.73C1537.56,1325.15 1536.98,1301.34 1565.16,1286C1631.67,1249.79 1628.58,1231.8 1639.65,1230.84Z" style="fill:rgb(247,139,137);"/>
                        <clipPath id="_clip2">
                            <path d="M1639.65,1230.84C1648.11,1230.11 1718.97,1223.38 1704.76,1264.77C1690.56,1306.17 1708.92,1307.96 1704.76,1319.27C1700.61,1330.58 1671.17,1338.95 1663.76,1349C1656.34,1359.06 1542.1,1374.6 1539.08,1341.73C1537.56,1325.15 1536.98,1301.34 1565.16,1286C1631.67,1249.79 1628.58,1231.8 1639.65,1230.84Z"/>
                        </clipPath>
                        <g clip-path="url(#_clip2)">
                            <g transform="matrix(1.18545,-2.77556e-17,-2.77556e-17,1.10941,-307.767,-143.573)">
                                <path d="M1678.19,1251.18C1678.19,1251.18 1654.26,1248.78 1660.72,1265.54C1667.18,1282.29 1678.19,1280.13 1678.19,1280.13C1678.19,1280.13 1694.46,1258.36 1678.19,1251.18" style="fill:rgb(99,59,58);stroke:black;stroke-width:0.69px;"/>
                            </g>
                            <g transform="matrix(0.350208,1.08422,-1.18096,0.381455,2495.99,-988.554)">
                                <path d="M1678.19,1251.18C1678.19,1251.18 1654.26,1248.78 1660.72,1265.54C1667.18,1282.29 1678.19,1280.13 1678.19,1280.13C1678.19,1280.13 1694.46,1258.36 1678.19,1251.18" style="fill:rgb(99,59,58);stroke:black;stroke-width:0.65px;"/>
                            </g>
                            <g transform="matrix(1.50216,-0.625472,0.129327,0.311766,-189.067,1364.7)">
                                <path d="M1071.3,1998.35C1066.2,1999.1 1064.63,1998.93 1063.58,2003.12C1062.54,2007.32 1062.38,2007.47 1062.54,2012.42C1062.68,2017.36 1065.38,2018.41 1071.68,2018.86C1077.97,2019.31 1084.07,2018.32 1082.03,2014.13C1080.34,2010.65 1080.3,2003.44 1078.5,2001.35C1076.7,1999.25 1076.39,1997.61 1071.3,1998.35Z" style="stroke:black;stroke-width:0.68px;"/>
                            </g>
                        </g>
                        <path d="M1639.65,1230.84C1648.11,1230.11 1718.97,1223.38 1704.76,1264.77C1690.56,1306.17 1708.92,1307.96 1704.76,1319.27C1700.61,1330.58 1671.17,1338.95 1663.76,1349C1656.34,1359.06 1542.1,1374.6 1539.08,1341.73C1537.56,1325.15 1536.98,1301.34 1565.16,1286C1631.67,1249.79 1628.58,1231.8 1639.65,1230.84Z" style="fill:none;stroke:black;stroke-width:0.79px;"/>
                    </g>
                </g>
            </g>
        </g>
    </g>
</svg>
