<?xml version="1.0" encoding="UTF-8" standalone="no"?>
<!DOCTYPE svg PUBLIC "-//W3C//DTD SVG 1.1//EN" "http://www.w3.org/Graphics/SVG/1.1/DTD/svg11.dtd">
<svg width="100%" height="100%" viewBox="0 0 542 269" version="1.1" xmlns="http://www.w3.org/2000/svg" xmlns:xlink="http://www.w3.org/1999/xlink" xml:space="preserve" xmlns:serif="http://www.serif.com/" style="fill-rule:evenodd;clip-rule:evenodd;stroke-linecap:round;stroke-linejoin:round;stroke-miterlimit:1.5;">
    <g transform="matrix(1,0,0,1,-2040.56,-1533.75)">
        <g transform="matrix(1.69247,0,0,2.45651,0,0)">
            <g transform="matrix(3.61794e-17,-0.407082,0.590854,2.49266e-17,1153.17,1036.36)">
                <g>
                    <g transform="matrix(0.487851,1.82069,-2.61258,0.704345,5818.59,-3004.94)">
                        <path d="M1054.06,2072.97C1054.06,2072.97 1073.26,2081.4 1077.47,2080.93C1081.69,2080.46 1096.44,2075.54 1103.47,2076.95C1110.49,2078.35 1114.71,2081.16 1114.71,2085.15C1114.71,2089.13 1117.29,2096.39 1112.37,2098.26C1107.45,2100.13 1101.83,2103.41 1096.91,2104.82C1091.99,2106.22 1084.73,2106.22 1081.69,2104.58C1078.64,2102.94 1080.75,2100.13 1084.03,2100.13C1087.31,2100.13 1085.44,2096.62 1082.16,2096.62C1078.88,2096.62 1077.47,2102.71 1073.49,2102.47C1069.51,2102.24 1054.76,2095.68 1051.01,2095.22C1047.26,2094.75 1032.98,2090.06 1032.98,2090.06C1032.98,2090.06 1040.24,2066.88 1054.06,2072.97Z" style="fill:rgb(182,146,108);stroke:black;stroke-width:0.43px;"/>
                    </g>
                    <g transform="matrix(2.71496,3.34645e-32,-3.33465e-32,2.70539,-1918.31,-5246.59)">
                        <path d="M1043.46,2047.68C1044.27,2049.98 1042.45,2056.69 1043.46,2059.86C1044.46,2063.03 1045.81,2068.11 1045.9,2068.4C1046,2068.68 1025.66,2066.77 1025.66,2066.77L1014.63,2065.71C1014.63,2065.71 1015.53,2056.23 1017.45,2052.57C1019.36,2048.91 1026.14,2043.75 1026.14,2043.75C1026.14,2043.75 1042.65,2045.38 1043.46,2047.68Z" style="fill:rgb(167,136,103);stroke:black;stroke-width:0.37px;"/>
                    </g>
                    <g transform="matrix(1,1.2326e-32,-1.2326e-32,1,-26.919,9.53383)">
                        <g transform="matrix(1.98123,-1.91794,1.95464,2.24623,-5263.37,-2305.44)">
                            <path d="M1020.24,2110.22C1021.1,2112.13 1012.62,2116.27 1013.43,2118.92C1014.43,2122.18 1002.11,2128.68 999.325,2129.07C996.544,2129.45 1009.37,2140.99 1010.04,2143.1C1010.71,2145.2 1025.41,2140.46 1032.4,2133.48C1037.65,2128.23 1044.45,2109.74 1045.76,2110.88C1047.49,2112.39 1035.36,2098.21 1031.14,2099.37C1026.92,2100.52 1021.89,2102.42 1021.63,2104.97C1021.36,2107.52 1019.37,2108.3 1020.24,2110.22Z" style="fill:rgb(17,24,85);stroke:black;stroke-width:0.36px;"/>
                        </g>
                        <g transform="matrix(0.478646,-2.85146,2.73152,0.735607,-5388.64,1872.72)">
                            <path d="M1009.43,2121.71C1007.99,2120.56 998.461,2116.68 996.542,2120.23C994.624,2123.78 1003.64,2146.22 1003.88,2148.81C1004.12,2151.4 1012.04,2151.21 1011.68,2146.61C1011.51,2144.53 1012.32,2138.95 1010.56,2134.06C1008.26,2127.64 1009.43,2121.71 1009.43,2121.71Z" style="fill:rgb(132,100,55);stroke:black;stroke-width:0.37px;"/>
                        </g>
                    </g>
                    <g transform="matrix(2.11944,1.69676,-1.95853,2.44642,2827.19,-6483.63)">
                        <g transform="matrix(0.911293,-0.411758,0.493186,1.09151,-952.761,234.222)">
                            <path d="M1019.6,2097.01C1019.34,2097.54 1011.3,2101.3 1016.42,2109.2C1019.6,2114.1 1034.9,2134.32 1034.3,2138.39C1033.03,2146.97 1031.86,2151.63 1031.73,2152.36C1031.44,2153.99 1038.79,2157.19 1044.45,2157.24C1050.11,2157.29 1057.99,2142.68 1057.87,2139.7C1057.69,2135.54 1051.46,2115.6 1043.68,2116.14C1037.26,2116.59 1020.17,2095.88 1019.6,2097.01Z" style="fill:rgb(0,9,88);stroke:black;stroke-width:0.32px;"/>
                        </g>
                        <g transform="matrix(0.911293,-0.411758,0.585331,1.29544,-1149.27,-210.805)">
                            <path d="M1028.77,2154.57C1027.38,2152.62 1024.26,2156.68 1024.36,2159.46C1024.45,2162.24 1051.7,2166.18 1057.45,2164.26C1063.21,2162.34 1057.64,2159.56 1054.96,2158.31C1052.27,2157.06 1044.03,2155.62 1041.82,2155.62C1039.62,2155.62 1030.21,2156.58 1028.77,2154.57Z" style="fill:rgb(132,100,55);stroke:black;stroke-width:0.29px;"/>
                        </g>
                    </g>
                    <g transform="matrix(6.12323e-17,1,-1,6.12323e-17,2531.14,-1174.97)">
                        <path d="M1521.26,1656.15C1514.75,1659.79 1501.31,1667.91 1499.76,1671.72C1497.71,1676.79 1499.55,1700.73 1510.65,1704.9C1534.61,1713.9 1600.65,1715.06 1616.06,1708.03C1631.48,1700.99 1645.04,1671.05 1646.27,1655.42C1646.64,1650.68 1641.18,1647.26 1633.16,1644.81C1636.22,1641.56 1638.53,1637.63 1639.44,1632.75C1642.33,1617.35 1628.76,1610 1623.94,1603.45C1619.12,1596.89 1595.53,1598.44 1581.86,1597.46C1571.4,1596.71 1512.97,1608.68 1512.38,1612.04C1511.43,1617.37 1516.03,1643.55 1521.26,1656.15ZM1566.54,1641.13C1565.1,1631.02 1571.6,1617.41 1574.01,1607.49C1560.21,1619.09 1532.88,1642.26 1521.26,1656.15C1535.96,1649.55 1554.7,1644.01 1566.54,1641.13Z" style="fill:rgb(188,193,214);stroke:black;stroke-width:1px;"/>
                    </g>
                    <g transform="matrix(6.12323e-17,1,-1,6.12323e-17,2531.14,-1174.97)">
                        <path d="M1521.26,1656.15C1514.75,1659.79 1501.31,1667.91 1499.76,1671.72C1497.71,1676.79 1499.55,1700.73 1510.65,1704.9C1534.61,1713.9 1600.65,1715.06 1616.06,1708.03C1631.48,1700.99 1645.04,1671.05 1646.27,1655.42C1646.64,1650.68 1641.18,1647.26 1633.16,1644.81C1636.22,1641.56 1516.03,1643.55 1521.26,1656.15Z" style="fill:rgb(226,120,19);stroke:black;stroke-width:1px;"/>
                    </g>
                    <g transform="matrix(0.209352,2.70688,-2.69733,0.208613,6278.72,-2833.81)">
                        <path d="M1053.35,2069.23C1056.34,2070.72 1042.35,2103.43 1037.1,2101.32C1035.18,2100.55 1035.33,2087.42 1035.33,2087.42C1039.2,2077.35 1045.94,2072.1 1053.35,2069.23Z" style="fill:rgb(176,85,10);stroke:black;stroke-width:0.37px;"/>
                    </g>
                    <g transform="matrix(0.150355,1.94407,-2.69733,0.208613,6339.67,-2045.84)">
                        <path d="M1054.06,2072.97C1054.06,2072.97 1073.26,2081.4 1077.47,2080.93C1081.69,2080.46 1096.44,2075.54 1103.47,2076.95C1110.49,2078.35 1114.71,2081.16 1114.71,2085.15C1114.71,2089.13 1117.29,2096.39 1112.37,2098.26C1107.45,2100.13 1101.83,2103.41 1096.91,2104.82C1091.99,2106.22 1084.73,2106.22 1081.69,2104.58C1078.64,2102.94 1080.75,2100.13 1084.03,2100.13C1087.31,2100.13 1085.44,2096.62 1082.16,2096.62C1078.88,2096.62 1077.47,2102.71 1073.49,2102.47C1069.51,2102.24 1054.76,2095.68 1051.01,2095.22C1047.26,2094.75 1032.98,2090.06 1032.98,2090.06C1032.98,2090.06 1040.24,2066.88 1054.06,2072.97Z" style="fill:rgb(182,146,108);stroke:black;stroke-width:0.42px;"/>
                    </g>
                    <g transform="matrix(0.209352,2.70688,-2.69733,0.208613,6278.72,-2833.81)">
                        <path d="M1053.35,2069.22C1053.35,2069.22 1027.12,2060.09 1021.5,2062.9C1015.88,2065.71 1010.5,2084.22 1011.9,2088.9C1013.31,2093.58 1021.97,2099.2 1025.02,2100.37C1028.06,2101.54 1034.38,2102.94 1036.96,2101.54C1039.54,2100.13 1036.45,2076.03 1053.35,2069.22Z" style="fill:rgb(226,120,19);stroke:black;stroke-width:0.37px;"/>
                    </g>
                </g>
                <g transform="matrix(1,1.2326e-32,-1.2326e-32,1,11.2819,-40.427)">
                    <g transform="matrix(0.167605,1.13221,-0.98922,0.146438,1530.72,-1977.42)">
                        <path d="M1950.68,1095.34C1948.37,1103.54 1818.62,1067.53 1822.84,1035.21C1825.38,1015.72 1831.78,1034.69 1835.28,1037C1854.4,1049.6 1935.11,1090.58 1951.51,1087.16C1965.59,1084.23 1950.68,1095.34 1950.68,1095.34Z" style="fill:rgb(74,56,36);stroke:black;stroke-width:0.93px;"/>
                    </g>
                    <g transform="matrix(-0.521208,1.01898,0.727832,0.372284,1017.81,-1972.33)">
                        <path d="M1953.25,1085.05C1953.25,1085.05 1821.52,1057.23 1822.84,1035.21C1824,1015.59 1831.17,1036.17 1835.28,1037C1840.06,1037.97 1845.48,1043.07 1854.42,1046.08C1887.53,1057.24 1942.83,1075.58 1954.08,1076.86C1968.37,1078.5 1953.25,1085.05 1953.25,1085.05Z" style="fill:rgb(74,56,36);stroke:black;stroke-width:1.01px;"/>
                    </g>
                </g>
                <g transform="matrix(1.69247,5.78391e-32,-5.62687e-33,2.45651,-978.396,-706.385)">
                    <g transform="matrix(1.60415,0,0,1.22834,-582.711,-2106.77)">
                        <path d="M1078.79,1993.31C1079.87,1998.42 1083.23,2004.28 1084.12,2007.56C1085.02,2010.83 1083.61,2014.35 1087.59,2017.39C1091.57,2020.44 1099.82,2026.14 1094.46,2028.04C1091.59,2029.05 1088.3,2028.75 1088.3,2028.75C1088.3,2028.75 1087.36,2030.97 1090.17,2033.32C1091.69,2034.58 1095.68,2037.3 1094.1,2039.52C1091.99,2042.48 1092.13,2044.86 1094.62,2045.96C1098.62,2047.74 1091.81,2054.63 1087.12,2054.63C1082.44,2054.63 1075.41,2056.5 1062.77,2055.56C1050.12,2054.63 1046.87,2059.31 1036.55,2054.63C1026.24,2049.94 1026.09,2052.32 1022.37,2044.13C1018.65,2035.93 1012.89,2026.76 1013.83,2017.63C1014.76,2008.49 1014.28,1999.83 1024.36,1996.55C1034.43,1993.27 1033.12,1995.14 1050.17,1990.69C1067.22,1986.25 1077.71,1988.2 1078.79,1993.31Z" style="fill:rgb(182,146,108);stroke:black;stroke-width:0.35px;"/>
                    </g>
                    <g transform="matrix(0.967722,0,0,0.228294,405.848,0.318651)">
                        <path d="M716.317,1591.6C718.268,1604.77 725.727,1686.4 713.774,1689.09C701.822,1691.77 695.388,1688.51 686.353,1690.11C675.926,1691.95 666.749,1732.62 665.484,1725.42C662.409,1707.91 659.243,1692.75 657.182,1661.79C655.827,1641.45 655.164,1602.12 654.565,1593.66C652.17,1559.81 657.028,1524.82 658.735,1516.04C659.508,1512.07 663.988,1498.84 665.902,1495.48C668.217,1491.42 675.505,1479.35 676.509,1477.15C678.269,1473.32 691.254,1454.83 698.248,1452.03C700.152,1451.27 714.216,1447.34 716.713,1446.24C722.321,1443.75 729.618,1448.16 729.618,1448.16C734.534,1447.2 750.516,1457.97 756.31,1465.93C762.339,1474.22 772.672,1501.82 766.573,1501.82C763.164,1501.82 754.225,1505.55 750.842,1506.13C748.174,1506.59 745.143,1507.03 741.163,1507.14C732.137,1507.38 733.998,1512.78 726.099,1520.42C718.364,1527.91 719.976,1525.81 720.707,1531.67C721.439,1537.52 728.757,1555.81 726.074,1560.33C723.391,1564.84 714.365,1578.43 716.317,1591.6Z" style="stroke:black;stroke-width:0.82px;"/>
                    </g>
                    <g transform="matrix(0.943656,0.126746,-0.0384206,0.134827,228.419,-2.79881)">
                        <path d="M1071.14,2002.56C1066.4,2010.31 1066.06,2011.79 1065.25,2017.79C1064.5,2023.29 1064.13,2025.02 1064.29,2029.97C1064.43,2034.91 1065.89,2025.42 1071.68,2018.86C1077.8,2011.91 1084.07,2018.32 1082.03,2014.13C1080.34,2010.65 1080.3,2003.44 1078.5,2001.35C1076.7,1999.25 1075.97,1994.67 1071.14,2002.56Z" style="stroke:black;stroke-width:0.85px;"/>
                    </g>
                    <g transform="matrix(1.5313,-0.32811,0.477917,1.0513,-1437.14,-1395.04)">
                        <path d="M1067.09,1996.56C1066.51,1996.85 1065.84,1996.85 1063.44,1996.85C1061.04,1996.85 1056.34,1995.32 1054.04,1997.04C1051.74,1998.77 1050.14,2000.86 1050.07,1998.42C1050.01,1995.99 1051.84,1994.16 1055.96,1993.88C1060.08,1993.59 1069.28,1993.11 1070.15,1994.74C1071.02,1996.37 1067.66,1996.28 1067.09,1996.56Z" style="stroke:black;stroke-width:0.37px;"/>
                    </g>
                    <g transform="matrix(0.572828,-0.0681596,0.10289,0.410465,-265.786,146.994)">
                        <path d="M2163.66,825.424C2163.66,825.424 2154.34,775.375 2119.83,786.712C2085.33,798.049 2090.26,829.842 2109.24,841.919C2128.21,853.995 2151.63,847.341 2151.63,847.341L2163.66,825.424Z" style="stroke:black;stroke-width:1px;"/>
                    </g>
                </g>
                <g transform="matrix(0.97065,-0.240498,0.240498,0.97065,-9.32126,246.83)">
                    <g transform="matrix(2.59168,-0.806004,0.808858,2.58253,-3395.66,-4109.72)">
                        <path d="M1067.09,1996.56C1066.51,1996.85 1065.84,1996.85 1063.44,1996.85C1061.04,1996.85 1058.35,1996.95 1055.48,1997.15C1052.06,1997.39 1049.6,1997.85 1049.54,1995.41C1049.48,1992.98 1051.84,1994.16 1055.96,1993.88C1058.06,1993.73 1061.49,1993.53 1064.45,1993.59C1067.3,1993.65 1069.72,1993.94 1070.15,1994.74C1071.02,1996.37 1067.66,1996.28 1067.09,1996.56Z" style="stroke:black;stroke-width:0.37px;"/>
                    </g>
                    <g transform="matrix(0.702465,2.62163,-2.61261,0.70568,5434.6,-3997.1)">
                        <path d="M1067.09,1996.56C1066.51,1996.85 1065.84,1996.85 1063.44,1996.85C1061.04,1996.85 1058.35,1996.95 1055.48,1997.15C1052.06,1997.39 1049.6,1997.85 1049.54,1995.41C1049.48,1992.98 1051.84,1994.16 1055.96,1993.88C1058.06,1993.73 1061.49,1993.53 1064.45,1993.59C1067.3,1993.65 1069.72,1993.94 1070.15,1994.74C1071.02,1996.37 1067.66,1996.28 1067.09,1996.56Z" style="stroke:black;stroke-width:0.37px;"/>
                    </g>
                </g>
                <g transform="matrix(0.282234,1.66877,-2.68723,0.454484,1630.91,-1804.64)">
                    <g transform="matrix(0.590854,0,0,0.407082,0,0)">
                        <path d="M1975.53,1046.45L1977.39,1108.9L2023.26,1087.75L2026.14,1030.76L1975.53,1046.45Z" style="fill:rgb(66,66,66);stroke:black;stroke-width:0.95px;"/>
                    </g>
                    <g transform="matrix(0.524502,0.00984685,-0.0160941,0.406931,143.17,-20.3732)">
                        <path d="M2009.29,1047.24L2051.93,1044.05L2054.86,1086.63L2013.51,1090.34C2001.89,1079.72 2001.84,1057.86 2009.29,1047.24Z" style="stroke:black;stroke-width:0.99px;"/>
                    </g>
                    <g transform="matrix(0.590854,0,0,0.407082,11.4682,-2.70306)">
                        <path d="M1927.81,1108.84L1958.38,1115.08L1957.05,1053.27L1926.27,1048.97L1927.81,1108.84Z" style="stroke:black;stroke-width:0.95px;"/>
                    </g>
                    <g transform="matrix(0.590854,0,0,0.407082,0,0)">
                        <path d="M1945.86,1042.41L1992.54,1030.76L2026.7,1030.76L1975.6,1046.62L1945.86,1042.41Z" style="fill:rgb(39,39,39);stroke:black;stroke-width:0.95px;"/>
                    </g>
                    <g transform="matrix(0.534644,0,0,0.412918,110.835,-6.43587)">
                        <path d="M1981.26,1028.19L1971.78,1030.76L1971.94,1040.71L1981.91,1042.72L1981.26,1028.19Z" style="stroke:black;stroke-width:0.98px;"/>
                    </g>
                    <g transform="matrix(0.590854,0,0,0.407082,-0.749898,-0.518703)">
                        <path d="M1982.07,1043.31L1981.61,1028.44L1998.97,1024.73L1999.17,1038.62L1982.07,1043.31Z" style="fill:rgb(66,66,66);stroke:black;stroke-width:0.95px;"/>
                    </g>
                    <g transform="matrix(0.790666,-0.069906,0.0909995,0.488564,-531.191,66.3874)">
                        <path d="M2073.28,1028.73C2073.28,1028.73 2075.26,1029.12 2078.95,1029.68C2082.65,1030.24 2075.93,1068.22 2075.93,1068.22L2069.19,1066.77C2064.04,1053.08 2066.02,1036.84 2073.28,1028.73Z" style="fill:rgb(66,66,66);stroke:black;stroke-width:0.75px;"/>
                    </g>
                    <g transform="matrix(0.790666,-0.069906,0.095957,0.51518,-540.14,39.2085)">
                        <path d="M2082.1,1030.76C2082.81,1030.78 2073.28,1044.65 2079.04,1063.2C2084.94,1082.22 2090.89,1021.21 2082.1,1030.76Z" style="fill:rgb(156,156,156);stroke:black;stroke-width:0.73px;"/>
                    </g>
                </g>
            </g>
        </g>
    </g>
</svg>
