<?xml version="1.0" encoding="UTF-8" standalone="no"?>
<!DOCTYPE svg PUBLIC "-//W3C//DTD SVG 1.1//EN" "http://www.w3.org/Graphics/SVG/1.1/DTD/svg11.dtd">
<svg width="100%" height="100%" viewBox="0 0 473 435" version="1.1" xmlns="http://www.w3.org/2000/svg" xmlns:xlink="http://www.w3.org/1999/xlink" xml:space="preserve" xmlns:serif="http://www.serif.com/" style="fill-rule:evenodd;clip-rule:evenodd;stroke-linejoin:round;stroke-miterlimit:2;">
    <g transform="matrix(1,0,0,1,-497.325,-0.585601)">
        <g transform="matrix(-1,0,0,1,1466.8,0)">
            <path d="M917.692,391.591C916.269,392.505 908.719,383.311 900.822,371.056C900.24,370.151 899.668,369.25 899.114,368.36L899.104,368.341C898.57,367.489 898.052,366.652 897.555,365.825C897.136,365.13 896.726,364.445 896.331,363.773L896.197,363.55L896.082,363.36C895.672,362.659 895.282,361.974 894.9,361.303C895.497,360.384 896.067,359.414 896.566,358.429L896.586,358.396L896.586,358.391C896.495,356.999 896.209,356.158 895.717,356.036C895.589,356.005 895.45,356.026 895.299,356.093L895.276,356.108L895.213,356.139L895.086,356.227C894.592,356.575 894.012,357.385 893.389,358.573C889.972,352.259 888.212,347.783 889.113,347.206C890.004,346.634 893.304,350.03 897.587,355.675L897.694,355.817C898.042,356.276 898.399,356.749 898.761,357.238C899.407,358.112 900.07,359.032 900.747,359.989C900.881,360.178 901.015,360.368 901.149,360.563L901.155,360.563C901.234,360.68 901.311,360.792 901.395,360.909C902.883,363.03 904.423,365.329 905.979,367.745C913.871,380 919.113,390.681 917.692,391.591Z" style="fill:rgb(255,197,12);fill-rule:nonzero;"/>
        </g>
        <g transform="matrix(-1,0,0,1,1466.8,0)">
            <path d="M931.329,365.475C930.924,367.119 922.438,366.457 912.366,363.994C908.182,362.972 904.386,361.802 901.405,360.665L901.153,360.563C900.042,360.138 899.054,359.713 898.203,359.303C897.587,359.01 897.048,358.719 896.589,358.445L896.564,358.429C895.361,357.7 894.734,357.057 894.855,356.561C894.887,356.437 894.962,356.324 895.085,356.226L895.212,356.138L895.275,356.106C895.726,355.858 896.52,355.715 897.586,355.674C898.017,355.66 898.492,355.657 899.005,355.669C899.636,355.689 900.331,355.73 901.082,355.791C904.472,356.09 908.959,356.859 913.819,358.046C923.89,360.508 931.727,363.836 931.329,365.475Z" style="fill:rgb(255,197,12);fill-rule:nonzero;"/>
        </g>
        <g transform="matrix(-1,0,0,1,1466.8,0)">
            <path d="M896.472,362.448C896.448,362.697 896.426,362.955 896.397,363.218L896.397,363.223C896.378,363.405 896.355,363.587 896.331,363.773C896.221,364.719 896.082,365.733 895.912,366.798C895.697,368.158 895.431,369.603 895.117,371.111C894.959,371.887 894.786,372.684 894.598,373.489C894.48,373.989 894.364,374.495 894.236,375C891.777,385.072 888.453,392.914 886.808,392.51C885.165,392.112 885.832,383.62 888.29,373.549C888.497,372.709 888.704,371.885 888.92,371.081L888.924,371.076C889.219,369.968 889.524,368.891 889.837,367.864C889.837,367.864 892.544,364.957 894.899,361.305C895.496,360.385 896.066,359.416 896.564,358.431L896.585,358.398L896.589,358.447C896.659,359.491 896.617,360.856 896.472,362.448Z" style="fill:rgb(255,197,12);fill-rule:nonzero;"/>
        </g>
        <g transform="matrix(-1,0,0,1,1466.8,0)">
            <path d="M880.569,376.542C875.212,378.087 869.821,378.251 864.424,377.028C840.877,371.687 826.196,341.676 825.583,340.401L832.714,335.805L829.149,338.102L832.712,335.801C832.844,336.076 846.233,363.346 866.081,367.824C875.341,369.913 886.512,363.93 895.893,355.392L897.558,362.407C891.432,367.986 886.843,374.735 880.569,376.542Z" style="fill:rgb(255,197,12);fill-rule:nonzero;"/>
        </g>
        <g transform="matrix(-1,0,0,1,1466.8,0)">
            <path d="M901.405,360.665L901.393,360.909C901.258,363.556 900.626,366.306 899.105,368.341C898.57,367.489 898.052,366.652 897.555,365.825C897.136,365.129 896.726,364.445 896.331,363.773C896.221,364.719 896.082,365.732 895.912,366.798C895.697,368.158 895.431,369.603 895.117,371.111C893.47,371.588 891.432,371.634 888.921,371.079L888.925,371.074C889.121,370.949 893.255,368.28 896.197,363.55C896.261,363.44 896.332,363.337 896.396,363.223L896.396,363.218C897.106,362.032 897.732,360.725 898.203,359.303C898.424,358.637 898.614,357.952 898.76,357.238C898.865,356.727 898.949,356.206 899.005,355.671C899.636,355.691 900.331,355.732 901.082,355.793C901.331,357.194 901.475,358.898 901.405,360.665Z" style="fill:rgb(249,171,16);fill-rule:nonzero;"/>
        </g>
        <g transform="matrix(-1,0,0,1,1466.8,0)">
            <path d="M814.187,435.514C812.507,435.694 809.888,424.088 808.335,409.592C808.221,408.521 808.115,407.459 808.019,406.415L808.02,406.394C807.924,405.393 807.839,404.413 807.765,403.451C807.704,402.641 807.644,401.844 807.592,401.068L807.574,400.807L807.555,400.586C807.504,399.778 807.463,398.989 807.423,398.218C808.37,397.664 809.313,397.055 810.202,396.398L810.235,396.377L810.237,396.373C810.781,395.089 810.903,394.208 810.518,393.88C810.418,393.793 810.285,393.748 810.12,393.742L810.091,393.743L810.02,393.743L809.868,393.765C809.271,393.854 808.388,394.319 807.299,395.099C807.081,387.924 807.517,383.134 808.582,383.022C809.634,382.91 811.059,387.428 812.35,394.394L812.383,394.569C812.488,395.134 812.594,395.718 812.699,396.318C812.883,397.387 813.061,398.509 813.237,399.666C813.271,399.896 813.305,400.128 813.339,400.362L813.342,400.364C813.361,400.504 813.381,400.638 813.403,400.78C813.779,403.343 814.123,406.09 814.428,408.947C815.978,423.443 815.867,435.341 814.187,435.514Z" style="fill:rgb(255,197,12);fill-rule:nonzero;"/>
        </g>
        <g transform="matrix(-1,0,0,1,1466.8,0)">
            <path d="M838.099,418.304C837.001,419.592 829.715,415.19 821.822,408.466C818.543,405.675 815.676,402.924 813.522,400.57L813.343,400.365C812.542,399.488 811.851,398.662 811.274,397.914C810.854,397.376 810.504,396.873 810.217,396.423L810.204,396.399C809.455,395.206 809.183,394.35 809.515,393.963C809.599,393.866 809.717,393.799 809.871,393.766L810.024,393.744L810.094,393.744C810.61,393.726 811.383,393.954 812.353,394.395C812.746,394.577 813.171,394.787 813.623,395.03C814.178,395.331 814.781,395.679 815.424,396.072C818.32,397.861 821.983,400.563 825.792,403.805C833.684,410.526 839.193,417.019 838.099,418.304Z" style="fill:rgb(255,197,12);fill-rule:nonzero;"/>
        </g>
        <g transform="matrix(-1,0,0,1,1466.8,0)">
            <path d="M808.315,399.947C808.18,400.158 808.046,400.38 807.901,400.601L807.899,400.605C807.8,400.759 807.698,400.911 807.592,401.067C807.07,401.863 806.491,402.705 805.861,403.58C805.057,404.699 804.172,405.872 803.214,407.077C802.723,407.701 802.212,408.335 801.682,408.97C801.352,409.364 801.02,409.763 800.68,410.157C793.961,418.053 787.468,423.567 786.181,422.468C784.892,421.372 789.3,414.086 796.019,406.189C796.582,405.533 797.136,404.889 797.691,404.267L797.698,404.265C798.46,403.406 799.215,402.582 799.955,401.804C799.955,401.804 803.677,400.424 807.423,398.218C808.37,397.663 809.313,397.054 810.202,396.397L810.235,396.376L810.216,396.422C809.809,397.389 809.159,398.59 808.315,399.947Z" style="fill:rgb(255,197,12);fill-rule:nonzero;"/>
        </g>
        <g transform="matrix(-1,0,0,1,1466.8,0)">
            <path d="M787.776,405.4C782.296,404.373 777.405,402.1 773.133,398.583C754.492,383.238 754.85,349.829 754.875,348.414L763.309,347.511L759.092,347.964L763.309,347.508C763.304,347.812 763.022,378.191 778.746,391.104C786.083,397.13 798.75,396.801 810.966,393.384L809.304,400.401C801.326,402.632 794.195,406.601 787.776,405.4Z" style="fill:rgb(255,197,12);fill-rule:nonzero;"/>
        </g>
        <g transform="matrix(-1,0,0,1,1466.8,0)">
            <path d="M813.521,400.57L813.403,400.782C812.092,403.086 810.293,405.259 808.02,406.393C807.924,405.392 807.839,404.412 807.765,403.45C807.704,402.64 807.644,401.843 807.592,401.067C807.07,401.863 806.491,402.705 805.861,403.58C805.057,404.699 804.172,405.872 803.214,407.077C801.529,406.765 799.686,405.891 797.691,404.267L797.698,404.265C797.927,404.241 802.821,403.713 807.574,400.806C807.68,400.739 807.79,400.677 807.899,400.604L807.901,400.6C809.067,399.86 810.214,398.972 811.273,397.913C811.769,397.418 812.247,396.89 812.699,396.318C813.02,395.908 813.33,395.481 813.62,395.028C814.175,395.329 814.778,395.677 815.421,396.07C815.014,397.434 814.38,399.022 813.521,400.57Z" style="fill:rgb(249,171,16);fill-rule:nonzero;"/>
        </g>
        <g transform="matrix(-1,0,0,1,1466.8,0)">
            <path d="M603.862,248.517C577.402,232.278 550.978,209.015 556.756,197.628C562.533,186.238 598.321,191.035 624.782,207.276C651.243,223.515 662.407,212.488 661.194,226.558C655.417,237.947 663.18,272.968 603.862,248.517Z" style="fill:rgb(55,109,204);fill-rule:nonzero;"/>
        </g>
        <g transform="matrix(-1,0,0,1,1466.8,0)">
            <path d="M555.973,201.76L555.972,201.76C555.877,200.257 556.124,198.871 556.755,197.627C558.904,193.389 565.208,191.393 573.643,191.393C575.172,191.393 576.772,191.458 578.428,191.588C576.772,191.458 575.173,191.393 573.644,191.393C565.212,191.393 558.905,193.39 556.756,197.628C556.124,198.872 555.878,200.257 555.973,201.76Z" style="fill:rgb(195,211,240);fill-rule:nonzero;"/>
        </g>
        <g transform="matrix(-1,0,0,1,1466.8,0)">
            <path d="M610.088,224.921C599.397,224.921 586.763,221.896 574.647,214.46C568.27,210.547 561.895,206.225 555.973,201.76C555.878,200.257 556.124,198.872 556.756,197.628C558.905,193.39 565.212,191.393 573.644,191.393C575.173,191.393 576.772,191.458 578.428,191.588C592.193,192.667 609.952,198.174 624.781,207.276C626.763,208.492 628.659,209.555 630.471,210.487C630.747,213.496 631.063,216.45 631.419,219.373C626.634,222.799 619.042,224.921 610.088,224.921Z" style="fill:rgb(55,109,204);fill-rule:nonzero;"/>
        </g>
        <g transform="matrix(-1,0,0,1,1466.8,0)">
            <path d="M599.439,225.792C572.978,209.552 546.555,186.291 552.333,174.903C558.11,163.513 593.898,168.31 620.359,184.551C646.819,200.79 666.382,214.451 660.606,225.841C654.828,237.228 625.899,242.032 599.439,225.792Z" style="fill:rgb(55,109,204);fill-rule:nonzero;"/>
        </g>
        <g transform="matrix(-1,0,0,1,1466.8,0)">
            <path d="M607.056,219.281C633.299,235.388 655.538,234.04 661.537,222.906C663.028,212.126 644.584,199.42 620.359,184.551C599.357,171.66 572.478,165.98 559.394,169.88C556.382,181.712 581.702,203.719 607.056,219.281Z" style="fill:rgb(42,90,192);fill-rule:nonzero;"/>
        </g>
        <g transform="matrix(-1,0,0,1,1466.8,0)">
            <path d="M601.826,212.91C577.596,192.907 546.876,157.094 555.434,144.63C563.994,132.163 608.591,147.765 632.821,167.768C657.049,187.771 669.753,214.093 661.194,226.558C652.633,239.025 626.054,232.913 601.826,212.91Z" style="fill:rgb(55,109,204);fill-rule:nonzero;"/>
        </g>
        <g transform="matrix(-1,0,0,1,1466.8,0)">
            <path d="M783.992,46.572C771.7,54.861 759.217,57.847 756.112,53.242C753.006,48.637 764.969,43.752 777.261,35.463C789.553,27.174 797.519,18.619 800.626,23.224C803.731,27.83 796.284,38.283 783.992,46.572Z" style="fill:rgb(55,109,204);fill-rule:nonzero;"/>
        </g>
        <g transform="matrix(-1,0,0,1,1466.8,0)">
            <path d="M776.542,26.389C772.565,40.671 772.409,53.94 767.057,52.45C761.707,50.96 760.592,38.174 764.57,23.891C768.547,9.609 776.109,-0.762 781.461,0.728C786.811,2.218 780.518,12.106 776.542,26.389Z" style="fill:rgb(92,133,238);fill-rule:nonzero;"/>
        </g>
        <g transform="matrix(-1,0,0,1,1466.8,0)">
            <path d="M913.848,217.321C912.744,204.725 903.571,210.336 892.381,215.946C877.918,223.197 860.085,230.449 851.954,198.389C844.499,113.347 818.85,24.978 720.615,35.893C633.159,43.558 622.509,118.849 629.827,202.326C646.282,451.434 931.36,417.093 913.848,217.321Z" style="fill:rgb(92,133,238);fill-rule:nonzero;"/>
        </g>
        <g transform="matrix(-1,0,0,1,1466.8,0)">
            <path d="M906.764,220.08C902.425,238.103 888.169,248.271 880.925,245.892C880.304,245.688 879.755,245.4 879.274,245.031C874.123,241.082 876.56,227.946 880.53,211.464L893.737,215.801L906.764,220.08Z" style="fill:rgb(92,133,238);fill-rule:nonzero;"/>
        </g>
        <g transform="matrix(-1,0,0,1,1466.8,0)">
            <path d="M886.169,241.343C884.299,241.802 881.921,243.234 879.274,245.031C873.549,248.911 866.578,254.496 860.826,255.639C856.763,256.448 853.309,255.041 851.332,249.262C845.255,231.512 856.262,159.246 861.422,151.835C866.691,144.268 876.432,165.695 883.789,185.034C886.738,192.791 889.303,200.215 891.044,205.296C892.277,208.899 893.17,212.434 893.737,215.8C895.962,229.022 893.159,239.624 886.169,241.343Z" style="fill:rgb(92,133,238);fill-rule:nonzero;"/>
        </g>
        <g transform="matrix(-1,0,0,1,1466.8,0)">
            <path d="M860.312,216.432C860.275,216.39 860.238,216.348 860.201,216.306C859.282,215.238 858.593,214.272 858.223,213.727C858.124,213.58 858.026,213.43 857.928,213.278C857.921,213.267 857.918,213.262 857.918,213.262C862.635,205.516 869.47,197.459 878.049,190.005C879.772,188.507 881.697,186.838 883.789,185.035C884.199,186.114 884.602,187.186 884.996,188.247C883.798,189.283 882.671,190.262 881.617,191.177C872.298,199.276 865.035,208.084 860.312,216.432Z" style="fill:rgb(92,133,238);fill-rule:nonzero;"/>
        </g>
        <g transform="matrix(-1,0,0,1,1466.8,0)">
            <path d="M779.947,92.661C777.626,99.193 772.856,93.215 764.206,90.141C755.555,87.067 746.301,88.062 748.623,81.53C750.944,74.998 759.838,72.194 768.488,75.268C777.137,78.342 782.267,86.129 779.947,92.661Z" style="fill:rgb(55,109,204);fill-rule:nonzero;"/>
        </g>
        <g transform="matrix(-1,0,0,1,1466.8,0)">
            <path d="M652.245,101.746C654.963,108.123 659.357,101.864 667.801,98.265C676.247,94.666 685.545,95.091 682.827,88.714C680.109,82.337 671.059,80.084 662.615,83.683C654.17,87.282 649.527,95.369 652.245,101.746Z" style="fill:rgb(55,109,204);fill-rule:nonzero;"/>
        </g>
        <g transform="matrix(-1,0,0,1,1466.8,0)">
            <path d="M698.364,231.634C671.837,233.958 652.377,242.507 638.341,255.616C667.086,363.081 757.075,395.557 826.625,369.922C822.233,292.446 787.31,221.75 698.364,231.634Z" style="fill:rgb(210,224,255);fill-rule:nonzero;"/>
        </g>
        <g transform="matrix(-1,0,0,1,1466.8,0)">
            <path d="M881.617,191.177C905.333,170.569 967.66,117.06 969.447,138.619C970.696,153.688 925.922,267.626 902.207,288.237C878.491,308.845 869.28,257.985 858.391,247.492C847.503,236.999 857.901,211.786 881.617,191.177Z" style="fill:rgb(92,133,238);fill-rule:nonzero;"/>
        </g>
        <g transform="matrix(-1,0,0,1,1466.8,0)">
            <path d="M851.954,198.389C850.897,186.332 849.474,174.207 847.53,162.308C849.474,174.209 850.897,186.33 851.954,198.389L851.954,198.387" style="fill:rgb(195,211,240);fill-rule:nonzero;"/>
        </g>
        <g transform="matrix(-1,0,0,1,1466.8,0)">
            <path d="M849.934,220.394C845.082,217.219 840.877,210.767 837.94,199.186C830.907,118.958 807.689,35.774 722.603,35.774C722.306,35.774 721.999,35.775 721.701,35.777C726.875,35.238 731.839,34.976 736.616,34.976C808.901,34.976 836.543,95.043 847.53,162.308C849.474,174.207 850.897,186.332 851.954,198.389C851.058,205.828 850.344,213.373 849.934,220.394Z" style="fill:rgb(81,126,228);fill-rule:nonzero;"/>
        </g>
        <g transform="matrix(-1,0,0,1,1466.8,0)">
            <path d="M857.127,222.89C854.628,222.651 852.21,221.883 849.934,220.394C850.344,213.373 851.058,205.828 851.954,198.387L851.954,198.389C853.589,204.835 855.616,209.691 857.928,213.278C857.96,213.328 858.061,213.487 858.223,213.727C858.862,214.679 859.522,215.535 860.201,216.306C860.237,216.348 860.274,216.391 860.311,216.434C859.072,218.625 858.008,220.783 857.127,222.89Z" style="fill:rgb(81,126,228);fill-rule:nonzero;"/>
        </g>
        <g transform="matrix(-1,0,0,1,1466.8,0)">
            <path d="M860.311,216.434C860.274,216.391 860.237,216.348 860.201,216.306C860.238,216.348 860.275,216.39 860.312,216.432L860.311,216.434ZM858.223,213.727C858.061,213.487 857.96,213.328 857.928,213.278C858.026,213.43 858.124,213.58 858.223,213.727Z" style="fill:rgb(81,126,228);fill-rule:nonzero;"/>
        </g>
        <g transform="matrix(-1,0,0,1,1466.8,0)">
            <path d="M858.903,222.973C858.307,222.973 857.714,222.946 857.127,222.89C858.008,220.783 859.072,218.625 860.311,216.434L860.312,216.432C862.583,218.969 865.062,220.538 867.67,221.383C864.726,222.35 861.773,222.973 858.903,222.973Z" style="fill:rgb(81,126,228);fill-rule:nonzero;"/>
        </g>
        <g transform="matrix(-1,0,0,1,1466.8,0)">
            <path d="M885.888,212.201C911.521,190.226 935.745,161.135 927.235,150.78C918.724,140.424 880.705,152.725 855.072,174.699C829.439,196.675 815.134,187.802 819.2,201.828C827.71,212.185 860.256,234.176 885.888,212.201Z" style="fill:rgb(55,109,204);fill-rule:nonzero;"/>
        </g>
        <g transform="matrix(-1,0,0,1,1466.8,0)">
            <path d="M855.073,174.699C880.706,152.724 918.725,140.424 927.236,150.78C928.166,151.91 928.704,153.265 928.893,154.81C923.319,160.572 917.222,166.28 911.045,171.576C885.412,193.551 852.985,194.686 844.475,184.33C844.154,183.938 843.872,183.536 843.627,183.123C847.13,180.963 850.955,178.229 855.073,174.699Z" style="fill:rgb(42,90,192);fill-rule:nonzero;"/>
        </g>
        <g transform="matrix(-1,0,0,1,1466.8,0)">
            <path d="M886.27,188.223C911.904,166.248 936.127,137.157 927.617,126.801C919.107,116.446 881.087,128.747 855.454,150.721C829.821,172.697 811.191,190.621 819.701,200.977C828.211,211.334 860.636,210.198 886.27,188.223Z" style="fill:rgb(55,109,204);fill-rule:nonzero;"/>
        </g>
        <g transform="matrix(-1,0,0,1,1466.8,0)">
            <path d="M876.708,183.199C851.285,204.993 826.816,208.245 818.114,198.195C814.387,187.566 831.985,170.841 855.453,150.721C875.799,133.28 903.947,121.932 918.95,123.172C924.537,134.551 901.27,162.142 876.708,183.199Z" style="fill:rgb(42,90,192);fill-rule:nonzero;"/>
        </g>
        <g transform="matrix(-1,0,0,1,1466.8,0)">
            <path d="M881.159,175.648C903.629,150.319 930.082,107.599 918.334,96.729C906.586,85.858 861.085,110.952 838.614,136.282C816.143,161.613 807.452,190.958 819.2,201.829C830.948,212.7 858.687,200.978 881.159,175.648Z" style="fill:rgb(55,109,204);fill-rule:nonzero;"/>
        </g>
        <g transform="matrix(-1,0,0,1,1466.8,0)">
            <path d="M734.324,147.737C736.141,124.594 750.928,106.88 767.352,108.17C783.776,109.46 795.617,129.266 793.799,152.408C791.981,175.55 777.194,193.265 760.77,191.975C744.346,190.685 732.506,170.879 734.324,147.737Z" style="fill:white;fill-rule:nonzero;"/>
        </g>
        <g transform="matrix(-1,0,0,1,1466.8,0)">
            <path d="M766.158,123.481C780.724,124.625 791.684,140.338 792.709,160.022C793.229,157.564 793.602,155.018 793.807,152.402C795.626,129.259 783.785,109.451 767.361,108.161C750.936,106.871 736.149,124.587 734.331,147.729C734.125,150.346 734.095,152.919 734.226,155.428C738.312,136.144 751.591,122.338 766.158,123.481Z" style="fill:rgb(235,235,255);fill-rule:nonzero;"/>
        </g>
        <g transform="matrix(-1,0,0,1,1466.8,0)">
            <path d="M742.582,139.897C750.148,131.44 763.137,130.718 771.594,138.284C780.051,145.85 780.774,158.84 773.208,167.297C765.641,175.754 752.651,176.476 744.194,168.91C735.737,161.343 735.015,148.354 742.582,139.897Z" style="fill:rgb(11,18,84);fill-rule:nonzero;"/>
        </g>
        <g transform="matrix(-1,0,0,1,1466.8,0)">
            <path d="M769.555,136.293C772.693,132.41 778.385,131.806 782.268,134.944C786.151,138.082 786.755,143.774 783.617,147.656C780.478,151.539 774.787,152.143 770.904,149.005C767.021,145.867 766.418,140.176 769.555,136.293Z" style="fill:white;fill-rule:nonzero;"/>
        </g>
        <g transform="matrix(-1,0,0,1,1466.8,0)">
            <path d="M765.13,149.912C768.219,149.193 771.307,151.116 772.026,154.208C772.745,157.299 770.822,160.386 767.731,161.105C764.64,161.823 761.553,159.9 760.835,156.809C760.116,153.718 762.039,150.63 765.13,149.912Z" style="fill:white;fill-rule:nonzero;"/>
        </g>
        <g transform="matrix(-1,0,0,1,1466.8,0)">
            <path d="M734.332,147.729C733.907,129.08 745.262,106.015 766.513,106.698C788.893,107.947 797.275,133.268 793.808,152.402C793.554,137.092 789.078,118.421 773.483,112.117C762.898,107.781 750.923,113.164 744.508,122.052C738.883,129.401 736.005,138.676 734.332,147.729Z" style="fill:rgb(11,18,84);fill-rule:nonzero;"/>
        </g>
        <g transform="matrix(-1,0,0,1,1466.8,0)">
            <path d="M639.04,144.926C640.857,121.783 655.645,104.069 672.068,105.359C688.492,106.649 700.333,126.455 698.515,149.597C696.697,172.739 681.91,190.454 665.486,189.164C649.062,187.874 637.222,168.068 639.04,144.926Z" style="fill:white;fill-rule:nonzero;"/>
        </g>
        <g transform="matrix(-1,0,0,1,1466.8,0)">
            <path d="M670.873,120.674C685.44,121.818 696.4,137.53 697.424,157.215C697.945,154.757 698.318,152.21 698.523,149.593C700.341,126.45 688.5,106.643 672.076,105.353C655.652,104.063 640.864,121.779 639.046,144.922C638.84,147.538 638.81,150.112 638.942,152.62C643.027,133.337 656.305,119.53 670.873,120.674Z" style="fill:rgb(235,235,255);fill-rule:nonzero;"/>
        </g>
        <g transform="matrix(-1,0,0,1,1466.8,0)">
            <path d="M649.253,135.166C657.88,127.795 670.849,128.813 678.22,137.44C685.591,146.068 684.573,159.037 675.946,166.408C667.318,173.779 654.349,172.761 646.978,164.134C639.607,155.506 640.625,142.537 649.253,135.166Z" style="fill:rgb(11,18,84);fill-rule:nonzero;"/>
        </g>
        <g transform="matrix(-1,0,0,1,1466.8,0)">
            <path d="M674.296,133.421C677.466,129.564 683.161,129.008 687.017,132.178C690.874,135.348 691.43,141.044 688.26,144.9C685.091,148.757 679.394,149.313 675.538,146.143C671.681,142.973 671.126,137.277 674.296,133.421Z" style="fill:white;fill-rule:nonzero;"/>
        </g>
        <g transform="matrix(-1,0,0,1,1466.8,0)">
            <path d="M676.879,153.166C676.63,156.329 673.865,158.693 670.701,158.445C667.538,158.196 665.174,155.43 665.423,152.266C665.671,149.103 668.436,146.74 671.6,146.989C674.764,147.237 677.128,150.002 676.879,153.166Z" style="fill:white;fill-rule:nonzero;"/>
        </g>
        <g transform="matrix(-1,0,0,1,1466.8,0)">
            <path d="M639.046,144.922C638.621,126.272 649.976,103.207 671.227,103.89C693.608,105.138 701.989,130.46 698.523,149.593C698.268,134.283 693.792,115.613 678.197,109.309C667.612,104.972 655.636,110.356 649.221,119.244C643.596,126.593 640.719,135.868 639.046,144.922Z" style="fill:rgb(11,18,84);fill-rule:nonzero;"/>
        </g>
        <g transform="matrix(-1,0,0,1,1466.8,0)">
            <path d="M712.136,219.595C704.492,219.562 696.822,213.55 692.889,205.237C691.906,203.155 691.156,200.931 690.702,198.62L725.328,198.766C725.59,200.097 725.749,201.404 725.798,202.667C726.191,212.341 720.593,219.63 712.136,219.595Z" style="fill:rgb(255,197,12);fill-rule:nonzero;"/>
        </g>
        <g transform="matrix(-1,0,0,1,1466.8,0)">
            <path d="M725.796,202.668C720.689,203.227 706.353,204.702 692.888,205.237C691.905,203.155 691.155,200.931 690.701,198.62L725.327,198.766C725.589,200.098 725.748,201.405 725.796,202.668Z" style="fill:rgb(249,171,16);fill-rule:nonzero;"/>
        </g>
        <g transform="matrix(-1,0,0,1,1466.8,0)">
            <path d="M660.559,204.443C657.267,195.865 672.22,170.783 690.109,169.216C707.997,167.647 723.767,180.876 725.336,198.764C725.336,198.764 663.851,213.019 660.559,204.443Z" style="fill:rgb(255,197,12);fill-rule:nonzero;"/>
        </g>
        <g transform="matrix(-1,0,0,1,1466.8,0)">
            <path d="M694.886,172.881C702.243,172.236 709.24,174.094 715.039,177.749C708.541,171.736 699.625,168.382 690.109,169.216C672.221,170.783 657.267,195.865 660.559,204.443C661.017,205.635 662.604,206.386 664.993,206.797C663.454,197.23 677.838,174.375 694.886,172.881Z" style="fill:rgb(252,213,117);fill-rule:nonzero;"/>
        </g>
        <g transform="matrix(-1,0,0,1,1466.8,0)">
            <path d="M497.325,153.246L574.641,123.848L615.832,232.181L538.516,261.578L497.325,153.246Z" style="fill:rgb(255,197,12);fill-rule:nonzero;"/>
        </g>
        <g transform="matrix(-1,0,0,1,1466.8,0)">
            <path d="M615.833,232.184L614.341,232.752L543.595,197.655L573.151,124.418L574.642,123.85L615.833,232.184Z" style="fill:rgb(249,171,16);fill-rule:nonzero;"/>
        </g>
        <g transform="matrix(-1,0,0,1,1466.8,0)">
            <path d="M615.833,232.185L574.642,123.852L556.579,192.718L615.833,232.185Z" style="fill:rgb(255,197,12);fill-rule:nonzero;"/>
        </g>
    </g>
</svg>
